<svg id="visual" viewBox="0 0 900 450" width="900" height="450" xmlns="http://www.w3.org/2000/svg" xmlns:xlink="http://www.w3.org/1999/xlink" version="1.1"><rect x="0" y="0" width="900" height="450" fill="#000000"></rect><defs><linearGradient id="grad1_0" x1="50%" y1="100%" x2="100%" y2="0%"><stop offset="10%" stop-color="#000000" stop-opacity="1"></stop><stop offset="90%" stop-color="#000000" stop-opacity="1"></stop></linearGradient></defs><defs><linearGradient id="grad2_0" x1="0%" y1="100%" x2="50%" y2="0%"><stop offset="10%" stop-color="#000000" stop-opacity="1"></stop><stop offset="90%" stop-color="#000000" stop-opacity="1"></stop></linearGradient></defs><g transform="translate(900, 450)"><path d="M-450 0C-439.4 -80.7 -428.8 -161.4 -389.7 -225C-350.7 -288.6 -283.2 -335.1 -213.5 -369.8C-143.8 -404.4 -71.9 -427.2 0 -450L0 0Z" fill="#f6f6f6"></path></g><g transform="translate(0, 0)"><path d="M450 0C439 80.1 428.1 160.2 389.7 225C351.3 289.8 285.5 339.2 216 374.1C146.5 409.1 73.2 429.5 0 450L0 0Z" fill="#f6f6f6"></path></g></svg>